<svg xmlns="http://www.w3.org/2000/svg" id="box" viewBox="0 0 500 500"><defs id="defs3716"><style id="style3714">.cls-1{fill:transparent;stroke:#66c5af;stroke-miterlimit:10;stroke-width:19px}.cls-2{fill:#66c5af}</style></defs><title id="title3718">ctr-finial</title><rect class="cls-1" x="48.17" y="47.25" width="400" height="400" rx="49.16" ry="49.16" id="rect3720" fill="none"/><path class="cls-2" d="M129.36 417.33a56.6 56.6 0 0 1-22.1-4 44.42 44.42 0 0 1-16-11.2 46.45 46.45 0 0 1-9.7-17.1 70.88 70.88 0 0 1-3.2-21.9 66.17 66.17 0 0 1 3.5-22 51.89 51.89 0 0 1 9.9-17.3 44.39 44.39 0 0 1 15.7-11.4 50.82 50.82 0 0 1 20.7-4.1c4.692.002 9.376.403 14 1.2a64.57 64.57 0 0 1 13.4 3.8l-4.2 16.2a44.87 44.87 0 0 0-9.7-3.2 54.85 54.85 0 0 0-11.7-1.2c-10.4 0-18.367 4.367-23.9 10.9-5.533 6.533-8.3 14.567-8.3 27.1a58.6 58.6 0 0 0 1.9 15.4c1.122 4.382 3.168 8.073 6 11.6a26.73 26.73 0 0 0 10.5 7.7 40.12 40.12 0 0 0 15.6 2.7c4.505.046 9.001-.324 13.4-1.3 3.227-.68 6.376-1.785 9.4-3.1l2.6 16a19.48 19.48 0 0 1-4.6 1.9 65.198 65.198 0 0 1-6.8 1.6c-2.533.467-5.233.867-8.1 1.2a72.439 72.439 0 0 1-8.3.5zm65.2-105.08H234v16.9h-39.4v45.38a57.649 57.649 0 0 0 1.2 12.9c.572 2.907 1.804 4.744 3.6 7.1a12.94 12.94 0 0 0 6 4.1 26.62 26.62 0 0 0 8.4 1.2c5.6 0 10.1-.633 13.5-1.9 3.4-1.267 5.767-2.167 7.1-2.7l3.6 16.3a69.08 69.08 0 0 1-9.8 3.5 55.72 55.72 0 0 1-16 2.1c-7.067 0-12.9-.9-17.5-2.7a25.48 25.48 0 0 1-11.1-8.1 32.38 32.38 0 0 1-5.9-13.3 87.5 87.5 0 0 1-1.7-18.3V260l18.6 18.73v33.52zM296 308.07c1.6 0 3.433.103 5.5.31 2.067.207 4.1.48 6.1.82 2 .347 3.833.68 5.5 1 1.25.24 2.485.55 3.7.93l-3.2 16.51a61.58 61.58 0 0 0-7.3-2 62.24 62.24 0 0 0-13.1-1.13 47.47 47.47 0 0 0-10.3 1.13c-3.4.76-5.633 1.577-6.7 1.85v90.03h-18.6V314.87a123.51 123.51 0 0 1 16.4-4.64 102.29 102.29 0 0 1 22-2.16z" id="path3722" fill="#66c5af"/></svg>